<svg id="Layer_1" data-name="Layer 1" xmlns="http://www.w3.org/2000/svg" xmlns:xlink="http://www.w3.org/1999/xlink" viewBox="0 0 492.44 80"><defs><style>.cls-1{fill:url(#linear-gradient);}.cls-2{fill:url(#linear-gradient-2);}.cls-3{fill:url(#linear-gradient-3);}.cls-4{fill:#8526d7;}</style><linearGradient id="linear-gradient" x1="15.36" y1="16.91" x2="66.82" y2="86.65" gradientUnits="userSpaceOnUse"><stop offset="0.04" stop-color="#ff892a"/><stop offset="0.23" stop-color="#de6759"/><stop offset="0.5" stop-color="#b53d94"/><stop offset="0.72" stop-color="#961fc0"/><stop offset="0.9" stop-color="#840cda"/><stop offset="1" stop-color="#7d05e4"/></linearGradient><linearGradient id="linear-gradient-2" x1="40.42" y1="24.31" x2="67.04" y2="52.8" gradientUnits="userSpaceOnUse"><stop offset="0" stop-color="#5800aa"/><stop offset="0.07" stop-color="#5401a2"/><stop offset="0.25" stop-color="#4d0391"/><stop offset="0.44" stop-color="#480586"/><stop offset="0.68" stop-color="#470583"/><stop offset="0.89" stop-color="#730bc1"/><stop offset="1" stop-color="#840dda"/></linearGradient><linearGradient id="linear-gradient-3" x1="20.68" y1="42.75" x2="47.31" y2="71.24" gradientUnits="userSpaceOnUse"><stop offset="0" stop-color="#bf0035"/><stop offset="0.09" stop-color="#9d014b"/><stop offset="0.19" stop-color="#7e035f"/><stop offset="0.3" stop-color="#66046f"/><stop offset="0.41" stop-color="#55047a"/><stop offset="0.53" stop-color="#4a0581"/><stop offset="0.68" stop-color="#470583"/><stop offset="0.89" stop-color="#730bc1"/><stop offset="1" stop-color="#840dda"/></linearGradient></defs><title>bi_web</title><path class="cls-1" d="M83.28,44.86a39.86,39.86,0,0,0-79.72,0c0,.26,0,.52,0,.78h0v29.7h0a9.76,9.76,0,0,0,19.5,0h0V45.64h0c0-.26,0-.52,0-.78a20.32,20.32,0,0,1,40.64,0c0,.26,0,.52,0,.78h0V74.56h0c0,.13,0,.26,0,.39a9.77,9.77,0,1,0,19.54,0c0-.13,0-.26,0-.39h0V45.64h0C83.27,45.38,83.28,45.12,83.28,44.86Z" transform="translate(-3.56 -5)"/><path class="cls-2" d="M83.27,45.64c0-.18,0-.36,0-.54a30.08,30.08,0,0,0-60.06-2.4,20.32,20.32,0,0,1,40.52,2.16c0,.26,0,.52,0,.78h0V73.43A30.08,30.08,0,0,0,83.27,45.64Z" transform="translate(-3.56 -5)"/><path class="cls-3" d="M23.1,45.06v.19c0,.13,0,.26,0,.39h0C23.11,45.45,23.11,45.25,23.1,45.06Z" transform="translate(-3.56 -5)"/><path class="cls-4" d="M210.56,5.28a39.27,39.27,0,1,0,39.27,39.27A39.27,39.27,0,0,0,210.56,5.28Zm0,59.41A20.14,20.14,0,1,1,230.7,44.55,20.14,20.14,0,0,1,210.56,64.69Z" transform="translate(-3.56 -5)"/><polygon class="cls-4" points="161.94 17.5 161.94 0.5 86.94 0.5 97.94 17.5 118.94 17.5 118.94 78.5 139.94 78.5 139.94 17.5 161.94 17.5"/><path class="cls-4" d="M333,29C332,5,304,6,304,6H260V84h22V47l6,6h17C334,53,333,29,333,29Zm-28.2,7v0H282V23h22.8v0c4,.25,7.2,3,7.2,6.47S308.83,35.72,304.8,36Z" transform="translate(-3.56 -5)"/><path class="cls-4" d="M380,7H360L324,85h23l8-18,4,6h27l5,12h24ZM361,56l9-21,9,21Z" transform="translate(-3.56 -5)"/><polygon class="cls-4" points="421.44 19 421.44 2 492.44 2 453.44 63 489.44 63 489.44 80 418.44 80 458.44 19 421.44 19"/></svg>